<?xml version="1.0" encoding="UTF-8" standalone="no"?>
<!DOCTYPE svg PUBLIC "-//W3C//DTD SVG 1.1//EN" "http://www.w3.org/Graphics/SVG/1.1/DTD/svg11.dtd">
<svg width="100%" height="100%" viewBox="0 0 1000 1000" version="1.1" xmlns="http://www.w3.org/2000/svg" xmlns:xlink="http://www.w3.org/1999/xlink" xml:space="preserve" xmlns:serif="http://www.serif.com/" style="fill-rule:evenodd;clip-rule:evenodd;stroke-linejoin:round;stroke-miterlimit:2;">
    <g id="lock-svgrepo-com.svg" transform="matrix(0.70352,0,0,0.70352,500,410.556)">
        <g transform="matrix(1,0,0,1,-400,-400)">
            <g id="XMLID_509_">
                <path id="XMLID_510_" d="M157.576,800L642.424,800C662.507,800 678.788,783.719 678.788,763.636L678.788,351.515C678.788,331.433 662.507,315.152 642.424,315.152L606.061,315.152L606.061,206.061C606.061,92.439 513.622,0 400,0C286.378,0 193.939,92.439 193.939,206.061L193.939,315.152L157.576,315.152C137.493,315.152 121.212,331.433 121.212,351.515L121.212,763.636C121.212,783.719 137.493,800 157.576,800ZM436.364,569.663L436.364,618.182C436.364,638.264 420.082,654.545 400,654.545C379.918,654.545 363.636,638.264 363.636,618.182L363.636,569.663C348.926,558.596 339.394,540.999 339.394,521.212C339.394,487.794 366.582,460.606 400,460.606C433.418,460.606 460.606,487.794 460.606,521.212C460.606,540.999 451.074,558.596 436.364,569.663ZM266.667,206.061C266.667,132.541 326.48,72.727 400,72.727C473.52,72.727 533.333,132.541 533.333,206.061L533.333,315.152L266.667,315.152L266.667,206.061Z" style="fill-rule:nonzero;"/>
            </g>
        </g>
    </g>
    <g transform="matrix(7.70337,0,0,7.70337,-317.029,-389.248)">
        <g transform="matrix(24,0,0,24,55.5594,163.562)">
            <path d="M0.073,-0L0.073,-0.716L0.305,-0.716C0.393,-0.716 0.45,-0.712 0.477,-0.705C0.518,-0.694 0.552,-0.671 0.58,-0.635C0.607,-0.599 0.621,-0.553 0.621,-0.496C0.621,-0.452 0.613,-0.415 0.597,-0.385C0.581,-0.355 0.561,-0.331 0.536,-0.314C0.512,-0.297 0.487,-0.286 0.461,-0.28C0.427,-0.273 0.377,-0.27 0.312,-0.27L0.217,-0.27L0.217,-0L0.073,-0ZM0.217,-0.595L0.217,-0.392L0.296,-0.392C0.353,-0.392 0.391,-0.395 0.411,-0.403C0.43,-0.41 0.445,-0.422 0.456,-0.438C0.467,-0.454 0.472,-0.472 0.472,-0.494C0.472,-0.52 0.465,-0.541 0.449,-0.558C0.434,-0.575 0.415,-0.586 0.391,-0.59C0.374,-0.593 0.339,-0.595 0.287,-0.595L0.217,-0.595Z" style="fill-rule:nonzero;"/>
        </g>
        <g transform="matrix(24,0,0,24,71.5672,163.562)">
            <path d="M0.073,-0L0.073,-0.716L0.377,-0.716C0.454,-0.716 0.51,-0.709 0.544,-0.697C0.579,-0.684 0.607,-0.661 0.627,-0.628C0.648,-0.595 0.659,-0.557 0.659,-0.515C0.659,-0.461 0.643,-0.417 0.611,-0.382C0.58,-0.347 0.533,-0.325 0.47,-0.316C0.501,-0.298 0.527,-0.278 0.547,-0.256C0.567,-0.234 0.595,-0.195 0.629,-0.14L0.717,-0L0.544,-0L0.439,-0.156C0.402,-0.211 0.377,-0.247 0.363,-0.261C0.35,-0.275 0.335,-0.285 0.32,-0.291C0.305,-0.296 0.28,-0.299 0.247,-0.299L0.218,-0.299L0.218,-0L0.073,-0ZM0.218,-0.413L0.325,-0.413C0.394,-0.413 0.437,-0.416 0.455,-0.422C0.472,-0.428 0.485,-0.438 0.495,-0.452C0.505,-0.466 0.51,-0.484 0.51,-0.506C0.51,-0.53 0.503,-0.549 0.49,-0.564C0.478,-0.579 0.459,-0.588 0.436,-0.592C0.424,-0.594 0.389,-0.595 0.331,-0.595L0.218,-0.595L0.218,-0.413Z" style="fill-rule:nonzero;"/>
        </g>
        <g transform="matrix(24,0,0,24,88.8992,163.562)">
            <rect x="0.068" y="-0.716" width="0.145" height="0.716" style="fill-rule:nonzero;"/>
        </g>
        <g transform="matrix(24,0,0,24,95.5672,163.562)">
            <path d="M0.255,-0L-0,-0.716L0.156,-0.716L0.337,-0.186L0.513,-0.716L0.666,-0.716L0.41,-0L0.255,-0Z" style="fill-rule:nonzero;"/>
        </g>
        <g transform="matrix(24,0,0,24,109.794,163.562)">
            <path d="M0.718,-0L0.561,-0L0.499,-0.163L0.212,-0.163L0.153,-0L0,-0L0.279,-0.716L0.432,-0.716L0.718,-0ZM0.452,-0.283L0.354,-0.549L0.257,-0.283L0.452,-0.283Z" style="fill-rule:nonzero;"/>
        </g>
        <g transform="matrix(24,0,0,24,125.345,163.562)">
            <path d="M0.234,-0L0.234,-0.595L0.021,-0.595L0.021,-0.716L0.59,-0.716L0.59,-0.595L0.378,-0.595L0.378,-0L0.234,-0Z" style="fill-rule:nonzero;"/>
        </g>
        <g transform="matrix(24,0,0,24,140.005,163.562)">
            <path d="M0.073,-0L0.073,-0.716L0.604,-0.716L0.604,-0.595L0.217,-0.595L0.217,-0.436L0.577,-0.436L0.577,-0.315L0.217,-0.315L0.217,-0.121L0.617,-0.121L0.617,-0L0.073,-0Z" style="fill-rule:nonzero;"/>
        </g>
    </g>
</svg>
